<svg width="33" height="32" viewBox="0 0 33 32" fill="none" xmlns="http://www.w3.org/2000/svg">
<path d="M5.66638 24C5.66638 22.5855 6.22828 21.229 7.22848 20.2288C8.22867 19.2286 9.58523 18.6667 10.9997 18.6667H21.6664C23.0809 18.6667 24.4374 19.2286 25.4376 20.2288C26.4378 21.229 26.9997 22.5855 26.9997 24C26.9997 24.7072 26.7188 25.3855 26.2187 25.8856C25.7186 26.3857 25.0403 26.6667 24.333 26.6667H8.33305C7.6258 26.6667 6.94753 26.3857 6.44743 25.8856C5.94733 25.3855 5.66638 24.7072 5.66638 24Z" stroke="#A09F9F" stroke-width="2.66667" stroke-linejoin="round"/>
<path d="M16.333 13.3333C18.5422 13.3333 20.333 11.5425 20.333 9.33334C20.333 7.1242 18.5422 5.33334 16.333 5.33334C14.1239 5.33334 12.333 7.1242 12.333 9.33334C12.333 11.5425 14.1239 13.3333 16.333 13.3333Z" stroke="#A09F9F" stroke-width="2.66667"/>
</svg>
